<?xml version="1.0" encoding="UTF-8" standalone="no"?>
<!-- Created with Inkscape (http://www.inkscape.org/) -->

<svg
   xmlns:dc="http://purl.org/dc/elements/1.1/"
   xmlns:cc="http://creativecommons.org/ns#"
   xmlns:rdf="http://www.w3.org/1999/02/22-rdf-syntax-ns#"
   xmlns:svg="http://www.w3.org/2000/svg"
   xmlns="http://www.w3.org/2000/svg"
   version="1.0"
   width="673.22833"
   height="326.60806"
   viewBox="0 0 673.2283 326.60806"
   id="svg2"
   xml:space="preserve"><metadata
     id="metadata14"><rdf:RDF><cc:Work
         rdf:about=""><dc:format>image/svg+xml</dc:format><dc:type
           rdf:resource="http://purl.org/dc/dcmitype/StillImage" /><dc:title></dc:title></cc:Work></rdf:RDF></metadata><defs
     id="defs12" /><path
     d="m 657.66109,67.763169 v 26.451 l -13.704,-26.454 h -8.427 v 35.218001 h -81.715 V 67.763169 h -8.064 v 26.451 l -13.705,-26.454 h -8.427 v 35.218001 h -68.148 l -14.058,-35.215001 h -7.191 l -14.055,35.215001 h -62.935 l -14.057,-35.215001 h -4.552 l -7.401,18.541 -7.399,-18.541 h -4.552 l -14.058,35.215001 h -61.27901 l -9.126,-11.323001 c 3.318,-2.397 5.484,-6.287 5.484,-10.692 0,-7.291 -5.905,-13.196 -13.196,-13.2 h -13.71 v 35.215001 h -73.832 l -14.059,-35.215001 h -7.191 l -14.055,35.215001 H 34.968089 l -9.051,-14.215001 20.095,-21 h -11.164 l -17.906,18.715 v -18.715 H 8.8770891 V 111.04217 H 16.942089 V 98.143169 l 3.233,-3.38 10.366,16.279001 h 79.170991 l 2.34,-5.864 h 19.697 l 2.34,5.864 h 87.362 V 94.159169 h 5.019 l 13.608,16.883001 h 70.60001 l 10.867,-27.229001 9.678,24.244001 9.677,-24.241001 10.865,27.226001 h 73.866 l 2.34,-5.864 h 19.696 l 2.34,5.864 h 81.677 V 84.591169 l 13.703,26.448001 h 0.363 v 0.002 h 97.844 V 84.591169 l 13.703,26.448001 h 0.363 v 0.002 h 8.064 V 67.763169 h -8.063 z m -542.38801,29.351 6.629,-16.607 6.629,16.607 h -13.258 z m 111.824,-11.02 h -5.645 v -10.266 h 5.645 c 2.835,0.008 5.127,2.299 5.134,5.134 -0.007,2.832 -2.299,5.128 -5.134,5.132 z m 204.09401,11.02 6.629,-16.607 6.63,16.607 h -13.259 z"
     id="KARMANN" /><path
     d="m 339.74609,142.39017 h 7.934 c -0.857,1.329 -2.496,3.883 -4.574,7.18 h -7.51 c 1.724,-2.918 3.13,-5.372 4.15,-7.18 z m 179.104,-19.789 c -23.712,17.417 -55.386,32.766 -81.711,43.146 -27.409,10.768 -50.89,16.768 -60.222,16.768 -5.728,0 -10.188,-2.269 -11.256,-6.407 -2.692,3.942 -9.615,11.764 -19.239,11.275 -3.862,-0.196 -5.818,-3.31 -3.836,-9.07 -4.986,5.18 -12.627,12.199 -20.275,15.473 -8.845,3.785 -10.788,-1.087 -10.321,-5.375 -9.73,10.758 -21.208,16.682 -27.311,11.717 -5.666,-4.609 3.488,-17.604 9.513,-26.529 -12.253,10.219 -25.577,22.791 -35.689,34.471 h -10.532 c 1.418,-3.302 4.335,-8.507 8.109,-14.784 -37.72801,23.984 -72.48601,67.91298 -87.06301,120.29098 l -12.281,2.401 c 9.17,-36.578 53.886,-94.26498 68.563,-114.56298 -19.453,18.144 -41.911,30.819 -46.406,14.54 -3.858,-13.973 9.585,-44.858 41,-79.91 3.419,-3.816 6.99,-7.655 10.67,-11.498 -3.354,1.893 -6.146,3.435 -8.243,4.552 l -2.278,-2.152 c 4.299,-2.166 10.356,-5.501 17.62,-9.676 60.51701,-60.876001 146.30601,-119.8880011 152.67801,-104.027001 4.521,11.254 -86.62,68.37 -138.189,98.800001 -8.68601,8.826 -17.56201,18.268 -26.56301,28.357 -29.893,33.503 -43.656,63.279 -40.744,74.289 3.388,12.807 37.535,-10.231 60.303,-41.909 0.368,0 0.666,0 0.97901,0.002 l 0.001,-0.002 h 6.457 l -25.71501,38.353 c 11.106,-9.426 24.78901,-18.978 32.55601,-23.335 13.547,-21.951 34.206,-52.722 40.855,-65.018 h 8.545 c -8.105,14.988 -37.029,57.429 -48.513,77.886 11.837,-12.856 28.482,-27.611 41.673,-37.93 2.024,-1.582 3.96,-3.057 5.79,-4.407 h 6.049 c -8.853,12.215 -23.323,32.962 -19.932,35.633 7.66,6.031 29.01,-23.379 39.627,-40.924 h 7.406 c -8.207,13.145 -20.141,33.024 -18.914,35.599 2.014,4.225 20.79,-13.985 28.217,-22.751 16.47,-19.44 35.688,-27.379 47.97,-27.278 1.162,0.009 1.482,0.811 1.021,1.552 -4.079,6.562 -20.883,33.605 -21.541,34.964 -0.667,1.381 0.073,3.526 2.417,3.334 10.294,-0.851 32.74,-7.534 55.533,-16.547 23.898,-9.418 52.367,-23.881 70.673,-39.312 h 12.549 z m -258.564,-18.701 c 52.694,-31.813001 130.129,-82.534001 127.269,-89.769001 -2.493,-6.3079996 -57.734,21.231 -127.269,89.769001 z m 127.225,40.523 c -0.718,-0.497 -18.954,6.95 -29.569,20.847 -5.844,7.651 -7.517,13.782 -4.938,13.782 14.761,0 36.154,-33.49 34.507,-34.629 z"
     id="Ghia" /></svg>