#define kg_logo_bottom_width 68
#define kg_logo_bottom_height 39
static unsigned char kg_logo_bottom_bits[] = {
   0x00, 0x00, 0x03, 0x00, 0x00, 0x00, 0x00, 0x00, 0x00, 0x00, 0x80, 0x01,
   0x00, 0x00, 0x00, 0x00, 0x00, 0x00, 0x00, 0xe0, 0x00, 0x08, 0x00, 0x00,
   0x00, 0x00, 0x0c, 0x00, 0x60, 0x00, 0x0c, 0x00, 0x00, 0x00, 0x00, 0x06,
   0x00, 0x30, 0x00, 0x04, 0x00, 0x00, 0x00, 0x80, 0x01, 0x00, 0x18, 0x00,
   0x06, 0x00, 0x30, 0x00, 0x60, 0x00, 0x00, 0x0c, 0x00, 0x03, 0x0c, 0x1c,
   0x00, 0x30, 0x00, 0x00, 0x04, 0x00, 0x01, 0x00, 0x19, 0x00, 0x0c, 0x00,
   0x00, 0x06, 0x80, 0x01, 0x86, 0x0c, 0x00, 0x03, 0x00, 0x00, 0x03, 0x80,
   0x10, 0x63, 0x0c, 0x60, 0x00, 0x00, 0x80, 0x01, 0xc0, 0x18, 0x21, 0x06,
   0x18, 0x00, 0x00, 0x80, 0x00, 0x60, 0x8e, 0x11, 0x03, 0x03, 0x00, 0x00,
   0xc0, 0x00, 0x23, 0xc7, 0x98, 0x73, 0x00, 0x00, 0x00, 0x40, 0x80, 0xb1,
   0xe6, 0x38, 0x06, 0x00, 0x00, 0x00, 0x60, 0xc0, 0x58, 0x63, 0x01, 0x00,
   0x00, 0x00, 0x00, 0x20, 0xe0, 0x3c, 0xcb, 0x00, 0x00, 0x00, 0x00, 0x00,
   0x30, 0x70, 0x1d, 0x07, 0x00, 0x00, 0x00, 0x00, 0x00, 0x10, 0xb8, 0x0c,
   0x00, 0x00, 0x00, 0x00, 0x00, 0x00, 0x10, 0x74, 0x00, 0x00, 0x00, 0x00,
   0x00, 0x00, 0x00, 0x10, 0x3b, 0x00, 0x00, 0x00, 0x00, 0x00, 0x00, 0x00,
   0xf0, 0x1c, 0x00, 0x00, 0x00, 0x00, 0x00, 0x00, 0x00, 0x00, 0x0c, 0x00,
   0x00, 0x00, 0x00, 0x00, 0x00, 0x00, 0x00, 0x06, 0x00, 0x00, 0x00, 0x00,
   0x00, 0x00, 0x00, 0x00, 0x03, 0x00, 0x00, 0x00, 0x00, 0x00, 0x00, 0x00,
   0x00, 0x01, 0x00, 0x00, 0x00, 0x00, 0x00, 0x00, 0x00, 0x80, 0x00, 0x00,
   0x00, 0x00, 0x00, 0x00, 0x00, 0x00, 0xc0, 0x00, 0x00, 0x00, 0x00, 0x00,
   0x00, 0x00, 0x00, 0x40, 0x00, 0x00, 0x00, 0x00, 0x00, 0x00, 0x00, 0x00,
   0x20, 0x00, 0x00, 0x00, 0x00, 0x00, 0x00, 0x00, 0x00, 0x30, 0x00, 0x00,
   0x00, 0x00, 0x00, 0x00, 0x00, 0x00, 0x10, 0x00, 0x00, 0x00, 0x00, 0x00,
   0x00, 0x00, 0x00, 0x18, 0x00, 0x00, 0x00, 0x00, 0x00, 0x00, 0x00, 0x00,
   0x08, 0x00, 0x00, 0x00, 0x00, 0x00, 0x00, 0x00, 0x00, 0x0c, 0x00, 0x00,
   0x00, 0x00, 0x00, 0x00, 0x00, 0x00, 0x04, 0x00, 0x00, 0x00, 0x00, 0x00,
   0x00, 0x00, 0x00, 0x06, 0x00, 0x00, 0x00, 0x00, 0x00, 0x00, 0x00, 0x00,
   0x06, 0x00, 0x00, 0x00, 0x00, 0x00, 0x00, 0x00, 0x00, 0x03, 0x00, 0x00,
   0x00, 0x00, 0x00, 0x00, 0x00, 0x00, 0x03, 0x00, 0x00, 0x00, 0x00, 0x00,
   0x00, 0x00, 0x00 };
