#define kg_logo_top_width 18
#define kg_logo_top_height 11
#define kg_logo_top_x_offset 56
#define kg_logo_top_y_offset 0
static unsigned char kg_logo_top_bits[] = {
   0x00, 0x80, 0x03, 0x00, 0x60, 0x02, 0x00, 0x18, 0x01, 0x00, 0x84, 0x00,
   0x00, 0x41, 0x00, 0x80, 0x10, 0x00, 0x60, 0x08, 0x00, 0x10, 0x02, 0x00,
   0x08, 0x01, 0x00, 0xc6, 0x00, 0x00, 0x21, 0x00, 0x00 };
