#define kg_logo_left_width 47
#define kg_logo_left_height 8
#define kg_logo_left_x_offset 2
#define kg_logo_left_y_offest 11

static unsigned char kg_logo_left_bits[] = {
   0x31, 0x00, 0x30, 0x00, 0x80, 0x07, 0x19, 0x00, 0x70, 0x00, 0x80, 0x04,
   0x0d, 0x00, 0x78, 0x00, 0x80, 0x0c, 0x07, 0x00, 0x58, 0x00, 0x80, 0x07,
   0x07, 0x00, 0xc8, 0x00, 0x80, 0x07, 0x0d, 0x00, 0xfc, 0x00, 0x80, 0x0c,
   0xf9, 0xff, 0xff, 0xff, 0xff, 0x7c, 0xf9, 0xff, 0x87, 0xff, 0xff, 0x78 };
