#define kg_logo_middle_merged_width 11
#define kg_logo_middle_merged_height 8
#define kg_logo_middle_merged_x_offset 49
#define kg_logo_middle_merged_y_offset 11
static unsigned char kg_logo_middle_merged_bits[] = {
   0x40, 0x04, 0x20, 0x02, 0x90, 0x00, 0x4c, 0x04, 0x16, 0x04, 0x07, 0x06,
   0xff, 0x07, 0xff, 0x03 };
